<svg width="35" height="47" viewBox="0 0 35 47" fill="none" xmlns="http://www.w3.org/2000/svg">
<path d="M1.20099 38.6103C1.10091 38.6103 1.00082 38.597 0.900742 38.5637C0.520429 38.4439 0.24687 38.1109 0.206837 37.718C0.200165 37.6381 0 35.8268 0 34.7346V7.02551C0 3.14983 3.15593 0 7.03913 0H27.7162C31.5994 0 34.7553 3.14983 34.7553 7.02551V26.5904C34.7553 30.4661 31.5994 33.6159 27.7162 33.6159H9.90149C7.58625 33.6159 5.33773 34.5682 3.73641 36.233L1.96162 38.264C1.76812 38.4838 1.49456 38.6037 1.20766 38.6037L1.20099 38.6103ZM7.03913 1.99778C4.25684 1.99778 2.00165 4.25526 2.00165 7.02551V34.7346C2.00165 34.8678 2.00165 35.0143 2.00832 35.1675L2.25519 34.8878C4.27018 32.8035 7.0458 31.6248 9.89482 31.6248H27.7162C30.4985 31.6248 32.7536 29.3673 32.7536 26.597V7.02551C32.7536 4.2486 30.4918 1.99778 27.7162 1.99778H7.03913Z" fill="#DE7773"/>
<path d="M13.351 40.6614L10.482 38.7901L7.07916 40.6614V33.0499H13.351V40.6614Z" fill="#DE7773"/>
<path d="M15.7663 46.1286H10.3085C4.62381 46.1286 0 42.0732 0 37.0854V34.7347C0 34.1819 0.447035 33.7358 1.00082 33.7358C1.55461 33.7358 2.00165 34.1819 2.00165 34.7347V37.0854C2.00165 40.9744 5.73139 44.1309 10.3085 44.1309H15.7663C19.9297 44.1309 23.3859 41.5204 23.9864 38.1309L18.9489 38.3506C18.3751 38.3706 17.9281 37.9444 17.9081 37.3984C17.8814 36.8456 18.3151 36.3795 18.8622 36.3595L25.0406 36.0932C25.3209 36.0798 25.5811 36.1797 25.7746 36.3728C25.9747 36.5593 26.0815 36.819 26.0815 37.092C26.0815 42.0798 21.4577 46.1353 15.773 46.1353L15.7663 46.1286Z" fill="#DE7773"/>
<path d="M6.09836 21.6293C5.54457 21.6293 5.09753 21.1831 5.09753 20.6304V10.3352C5.09753 7.77136 7.18592 5.68036 9.76138 5.68036H21.4643C22.0181 5.68036 22.4652 6.12653 22.4652 6.67925C22.4652 7.23196 22.0181 7.67813 21.4643 7.67813H9.76138C8.2935 7.67813 7.09918 8.87014 7.09918 10.3352V20.6304C7.09918 21.1831 6.65215 21.6293 6.09836 21.6293Z" fill="#DE7773"/>
</svg>
