<svg width="428" height="926" viewBox="0 0 428 926" fill="none" xmlns="http://www.w3.org/2000/svg">
    <g clip-path="url(#clip0_1_772)">
        <rect width="428" height="926" fill="#171B36" />
        <path
            d="M640.341 532C640.341 689.953 512.295 818 354.341 818C196.388 818 335.841 689.953 335.841 532C335.841 374.047 196.388 246 354.341 246C512.295 246 640.341 374.047 640.341 532Z"
            fill="#09E8B2" />
        <path
            d="M423.244 -57.033C538.29 51.1965 342.887 -0.0741553 234.658 114.972C126.428 230.018 146.356 467.816 31.3097 359.586C-83.7366 251.357 -89.2626 70.356 18.967 -44.6903C127.197 -159.737 308.197 -165.263 423.244 -57.033Z"
            fill="#DE7773" />
        <path
            d="M156.527 641.479C220.181 786.038 351.821 867.983 207.262 931.638C62.7032 995.292 -106.088 929.707 -169.743 785.148C-233.397 640.588 -167.812 471.798 -23.2526 408.143C121.307 344.488 92.8716 496.92 156.527 641.479Z"
            fill="#F6C85D" />
        <path
            d="M185.636 470.08C185.457 470.08 185.278 470.057 185.099 469.997C184.418 469.783 183.929 469.187 183.857 468.484C183.845 468.341 183.487 465.1 183.487 463.146V413.57C183.487 406.636 189.134 401 196.081 401H233.076C240.024 401 245.67 406.636 245.67 413.57V448.575C245.67 455.509 240.024 461.145 233.076 461.145H201.203C197.06 461.145 193.037 462.848 190.172 465.827L186.997 469.461C186.651 469.854 186.161 470.069 185.648 470.069L185.636 470.08ZM196.081 404.574C191.103 404.574 187.068 408.613 187.068 413.57V463.146C187.068 463.385 187.068 463.647 187.08 463.921L187.522 463.42C191.127 459.691 196.093 457.582 201.191 457.582H233.076C238.054 457.582 242.089 453.543 242.089 448.587V413.57C242.089 408.601 238.042 404.574 233.076 404.574H196.081Z"
            fill="white" />
        <path d="M207.374 473.75L202.241 470.402L196.153 473.75V460.132H207.374V473.75Z"
            fill="white" />
        <path
            d="M211.696 483.532H201.931C191.76 483.532 183.487 476.276 183.487 467.352V463.146C183.487 462.157 184.287 461.359 185.278 461.359C186.269 461.359 187.068 462.157 187.068 463.146V467.352C187.068 474.31 193.742 479.958 201.931 479.958H211.696C219.145 479.958 225.329 475.287 226.403 469.223L217.39 469.616C216.363 469.652 215.564 468.889 215.528 467.912C215.48 466.923 216.256 466.089 217.235 466.053L228.289 465.577C228.791 465.553 229.256 465.732 229.602 466.077C229.96 466.411 230.151 466.875 230.151 467.364C230.151 476.288 221.879 483.544 211.708 483.544L211.696 483.532Z"
            fill="white" />
        <path
            d="M194.398 439.698C193.407 439.698 192.608 438.9 192.608 437.911V419.491C192.608 414.904 196.344 411.163 200.952 411.163H221.891C222.881 411.163 223.681 411.961 223.681 412.95C223.681 413.939 222.881 414.737 221.891 414.737H200.952C198.326 414.737 196.189 416.87 196.189 419.491V437.911C196.189 438.9 195.389 439.698 194.398 439.698Z"
            fill="white" />
        <path
            d="M126.779 525.011C126.206 525.011 125.764 524.856 125.466 524.546C125.155 524.236 125 523.807 125 523.235V504.446C125 503.874 125.155 503.433 125.466 503.136C125.776 502.826 126.206 502.671 126.779 502.671H138.37C138.812 502.671 139.158 502.778 139.385 503.004C139.612 503.231 139.731 503.553 139.731 503.97C139.731 504.41 139.612 504.756 139.385 504.982C139.146 505.221 138.812 505.328 138.37 505.328H128.175V512.334H137.666C138.131 512.334 138.478 512.453 138.692 512.679C138.919 512.917 139.027 513.239 139.027 513.656C139.027 514.097 138.919 514.431 138.692 514.657C138.466 514.883 138.131 514.99 137.666 514.99H128.175V522.342H138.37C138.812 522.342 139.158 522.461 139.385 522.687C139.624 522.926 139.731 523.247 139.731 523.664C139.731 524.105 139.612 524.439 139.385 524.665C139.158 524.891 138.812 524.999 138.37 524.999H126.779V525.011Z"
            fill="white" />
        <path
            d="M143.121 525.225C142.703 525.225 142.357 525.13 142.107 524.939C141.856 524.749 141.701 524.498 141.665 524.177C141.617 523.855 141.689 523.497 141.856 523.104L150.463 503.838C150.678 503.326 150.94 502.969 151.275 502.766C151.597 502.552 151.967 502.444 152.373 502.444C152.755 502.444 153.113 502.552 153.435 502.766C153.758 502.981 154.032 503.338 154.247 503.838L162.854 523.104C163.045 523.509 163.117 523.867 163.081 524.2C163.033 524.534 162.902 524.784 162.663 524.963C162.424 525.142 162.102 525.237 161.672 525.237C161.207 525.237 160.837 525.118 160.562 524.891C160.288 524.665 160.049 524.296 159.834 523.819L157.614 518.684L159.106 519.566H145.58L147.037 518.684L144.852 523.819C144.637 524.331 144.411 524.689 144.16 524.915C143.909 525.142 143.563 525.249 143.145 525.249L143.121 525.225ZM152.289 506.317L147.49 517.659L146.703 516.897H157.912L157.184 517.659L152.361 506.317H152.301H152.289Z"
            fill="white" />
        <path
            d="M173.849 525.297C172.87 525.297 171.927 525.225 170.996 525.07C170.065 524.927 169.181 524.701 168.357 524.391C167.534 524.081 166.794 523.712 166.137 523.271C165.815 523.045 165.6 522.771 165.492 522.473C165.373 522.175 165.349 521.889 165.397 521.603C165.445 521.317 165.576 521.067 165.767 520.864C165.958 520.65 166.185 520.519 166.459 520.471C166.734 520.424 167.044 520.507 167.379 520.745C168.334 521.353 169.336 521.806 170.399 522.092C171.461 522.378 172.607 522.52 173.861 522.52C175.663 522.52 176.988 522.199 177.848 521.555C178.707 520.912 179.137 520.066 179.137 519.041C179.137 518.196 178.827 517.528 178.218 517.028C177.609 516.527 176.583 516.134 175.138 515.836L171.736 515.145C169.73 514.728 168.226 514.025 167.247 513.06C166.268 512.095 165.767 510.785 165.767 509.129C165.767 508.14 165.97 507.222 166.388 506.4C166.806 505.578 167.379 504.863 168.119 504.267C168.859 503.66 169.754 503.207 170.781 502.885C171.819 502.564 172.953 502.409 174.183 502.409C175.496 502.409 176.726 502.576 177.884 502.921C179.042 503.255 180.068 503.779 180.976 504.47C181.25 504.661 181.441 504.899 181.525 505.185C181.62 505.471 181.644 505.745 181.584 506.019C181.537 506.293 181.405 506.531 181.214 506.71C181.023 506.901 180.785 507.008 180.486 507.044C180.188 507.079 179.865 506.972 179.507 506.746C178.684 506.198 177.836 505.804 176.988 505.554C176.129 505.316 175.186 505.185 174.147 505.185C173.109 505.185 172.201 505.34 171.437 505.661C170.661 505.983 170.077 506.424 169.659 506.996C169.241 507.568 169.038 508.247 169.038 509.021C169.038 509.903 169.324 510.618 169.897 511.142C170.47 511.666 171.425 512.071 172.751 512.345L176.117 513.037C178.23 513.477 179.806 514.168 180.844 515.098C181.883 516.027 182.396 517.266 182.396 518.803C182.396 519.792 182.193 520.686 181.799 521.484C181.393 522.27 180.82 522.961 180.08 523.521C179.34 524.093 178.445 524.534 177.394 524.832C176.344 525.142 175.162 525.297 173.861 525.297H173.849Z"
            fill="white" />
        <path
            d="M192.615 525.225C192.09 525.225 191.684 525.082 191.397 524.784C191.111 524.486 190.967 524.069 190.967 523.521V513.477L191.696 515.574L183.853 504.708C183.614 504.387 183.518 504.053 183.53 503.707C183.542 503.362 183.697 503.064 183.96 502.826C184.223 502.587 184.581 502.456 185.022 502.456C185.357 502.456 185.667 502.54 185.954 502.707C186.24 502.873 186.503 503.136 186.765 503.493L193.057 512.202H192.293L198.572 503.493C198.846 503.112 199.109 502.85 199.372 502.683C199.622 502.528 199.945 502.444 200.327 502.444C200.768 502.444 201.114 502.552 201.353 502.778C201.592 503.004 201.723 503.29 201.735 503.636C201.735 503.981 201.616 504.351 201.341 504.732L193.57 515.562L194.238 513.465V523.509C194.238 524.653 193.701 525.225 192.615 525.225Z"
            fill="white" />
        <path
            d="M217.734 525.004C217.161 525.004 216.719 524.849 216.421 524.539C216.11 524.229 215.955 523.8 215.955 523.228V504.439C215.955 503.867 216.11 503.426 216.421 503.128C216.731 502.819 217.161 502.664 217.734 502.664H225.29C226.83 502.664 228.155 502.902 229.242 503.355C230.328 503.82 231.164 504.487 231.749 505.357C232.334 506.226 232.62 507.263 232.62 508.49C232.62 509.836 232.214 510.98 231.414 511.91C230.614 512.839 229.516 513.458 228.143 513.78V513.304C229.707 513.518 230.937 514.102 231.82 515.067C232.716 516.032 233.157 517.283 233.157 518.82C233.157 520.81 232.501 522.335 231.187 523.395C229.874 524.467 228.036 524.992 225.66 524.992H217.722L217.734 525.004ZM219.13 512.422H224.777C226.305 512.422 227.451 512.112 228.239 511.504C229.027 510.897 229.409 509.991 229.409 508.812C229.409 507.632 229.015 506.727 228.239 506.119C227.451 505.511 226.305 505.202 224.777 505.202H219.13V512.422ZM219.13 522.466H225.29C226.878 522.466 228.048 522.156 228.812 521.536C229.576 520.917 229.958 519.964 229.958 518.701C229.958 517.438 229.576 516.497 228.812 515.877C228.048 515.269 226.878 514.96 225.29 514.96H219.13V522.466Z"
            fill="white" />
        <path
            d="M247.315 525.29C245.202 525.29 243.352 524.825 241.776 523.884C240.2 522.942 238.983 521.608 238.123 519.892C237.264 518.177 236.834 516.151 236.834 513.828C236.834 512.076 237.073 510.492 237.562 509.086C238.052 507.68 238.744 506.476 239.651 505.476C240.559 504.475 241.657 503.712 242.946 503.176C244.235 502.652 245.692 502.378 247.291 502.378C249.428 502.378 251.279 502.843 252.842 503.772C254.406 504.701 255.624 506.024 256.471 507.728C257.331 509.443 257.761 511.457 257.761 513.78C257.761 515.532 257.522 517.116 257.032 518.534C256.543 519.952 255.839 521.167 254.92 522.18C254 523.193 252.89 523.967 251.601 524.491C250.312 525.016 248.867 525.278 247.279 525.278L247.315 525.29ZM247.315 522.442C248.795 522.442 250.061 522.108 251.111 521.429C252.162 520.75 252.962 519.773 253.523 518.486C254.084 517.2 254.37 515.651 254.37 513.828C254.37 511.099 253.762 508.99 252.532 507.489C251.302 505.988 249.571 505.237 247.327 505.237C245.847 505.237 244.582 505.571 243.531 506.238C242.48 506.905 241.681 507.882 241.12 509.169C240.559 510.456 240.272 512.005 240.272 513.828C240.272 516.532 240.893 518.641 242.134 520.166C243.376 521.691 245.107 522.442 247.327 522.442H247.315Z"
            fill="white" />
        <path
            d="M271.919 525.29C269.806 525.29 267.955 524.825 266.38 523.884C264.804 522.942 263.586 521.608 262.727 519.892C261.867 518.177 261.438 516.151 261.438 513.828C261.438 512.076 261.676 510.492 262.166 509.086C262.655 507.68 263.348 506.476 264.255 505.476C265.162 504.475 266.26 503.712 267.55 503.176C268.839 502.652 270.295 502.378 271.895 502.378C274.032 502.378 275.882 502.843 277.446 503.772C279.01 504.701 280.227 506.024 281.075 507.728C281.934 509.443 282.364 511.457 282.364 513.78C282.364 515.532 282.125 517.116 281.636 518.534C281.147 519.952 280.442 521.167 279.523 522.18C278.604 523.193 277.494 523.967 276.204 524.491C274.915 525.016 273.471 525.278 271.883 525.278L271.919 525.29ZM271.919 522.442C273.399 522.442 274.664 522.108 275.715 521.429C276.765 520.75 277.565 519.773 278.126 518.486C278.687 517.2 278.974 515.651 278.974 513.828C278.974 511.099 278.365 508.99 277.135 507.489C275.906 505.988 274.175 505.237 271.931 505.237C270.45 505.237 269.185 505.571 268.135 506.238C267.084 506.905 266.284 507.882 265.723 509.169C265.162 510.456 264.876 512.005 264.876 513.828C264.876 516.532 265.496 518.641 266.738 520.166C267.979 521.691 269.71 522.442 271.931 522.442H271.919Z"
            fill="white" />
        <path
            d="M288.452 525.23C287.927 525.23 287.509 525.087 287.235 524.789C286.96 524.491 286.805 524.086 286.805 523.55V504.094C286.805 503.546 286.948 503.129 287.235 502.854C287.521 502.58 287.927 502.437 288.452 502.437C288.978 502.437 289.383 502.58 289.67 502.854C289.956 503.129 290.1 503.546 290.1 504.094V512.708H290.159L299.901 503.295C300.223 502.997 300.521 502.783 300.808 502.64C301.094 502.497 301.417 502.437 301.775 502.437C302.264 502.437 302.61 502.557 302.837 502.807C303.064 503.045 303.148 503.343 303.112 503.677C303.064 504.01 302.885 504.344 302.575 504.654L292.451 514.281L292.511 512.66L303.052 522.799C303.434 523.157 303.637 523.526 303.649 523.907C303.673 524.289 303.553 524.599 303.303 524.837C303.052 525.075 302.694 525.206 302.228 525.206C301.811 525.206 301.464 525.123 301.214 524.956C300.963 524.789 300.665 524.539 300.318 524.229L290.159 514.566H290.1V523.538C290.1 524.062 289.956 524.479 289.682 524.777C289.407 525.075 288.99 525.218 288.44 525.218L288.452 525.23Z"
            fill="white" />
    </g>
    <defs>
        <clipPath id="clip0_1_772">
            <rect width="428" height="926" fill="white" />
        </clipPath>
    </defs>
</svg>